<svg xmlns="http://www.w3.org/2000/svg" width="166" height="28" viewBox="0 0 166 28" fill="none"><path fill-rule="evenodd" clip-rule="evenodd" d="M38.2702 5.67334H35.5537V21.3335C36.7586 21.8266 38.818 22.1634 40.4395 22.1634C44.1199 22.1634 45.7848 20.752 45.7848 16.0687C45.7848 11.4537 44.2515 10.1091 41.1622 10.1091C39.9132 10.1091 38.8841 10.4901 38.2702 10.8707V5.67334ZM40.4396 19.8777C39.7388 19.8777 38.906 19.7651 38.2703 19.519V13.6268C38.2703 12.9544 39.2779 12.5508 40.4834 12.5508C42.3893 12.5508 43.0027 13.2906 43.0027 16.1137C43.0027 19.3622 42.3678 19.8777 40.4396 19.8777Z" fill="#313647"></path><path d="M54.3681 10.2905H57.0816V21.1662C55.7033 21.7103 53.5801 22.1634 51.8072 22.1634C48.6781 22.1634 47.2769 20.8724 47.2769 16.7251V10.2905H49.9906V16.4315C49.9906 18.9913 50.4505 19.6257 52.3544 19.6257C53.0767 19.6257 53.7114 19.5352 54.3681 19.3312V10.2905Z" fill="#313647"></path><path fill-rule="evenodd" clip-rule="evenodd" d="M63.9413 22.1634C65.5403 22.1634 67.5996 21.8266 68.8048 21.3335V5.67334H66.088V10.7589C65.4963 10.4227 64.6857 10.109 63.4153 10.109C60.4361 10.109 58.5737 11.5204 58.5737 16.1361C58.5737 20.8187 60.2607 22.1634 63.9413 22.1634ZM63.8974 12.4618C65.1242 12.4618 66.088 12.8873 66.088 13.5596V19.4526C65.5182 19.6544 64.6857 19.7887 63.9413 19.7887C62.013 19.7887 61.3778 19.2056 61.3778 16.0915C61.3778 13.2466 61.9909 12.4618 63.8974 12.4618Z" fill="#313647"></path><path fill-rule="evenodd" clip-rule="evenodd" d="M70.7231 16.2097C70.7231 20.8988 72.3446 22.2129 75.4117 22.2129C76.6825 22.2129 77.6239 21.8501 78.2373 21.4649C78.2373 23.5944 77.0324 24.1831 74.9729 24.1831C73.9214 24.1831 72.6506 23.9569 71.6218 23.6171L71.0739 25.8825C72.0375 26.267 73.7249 26.5614 74.9956 26.5614C78.5224 26.5614 80.9542 25.5652 80.9542 21.0573V10.9324C79.7494 10.4113 77.6899 10.0713 76.0904 10.0713C72.41 10.0713 70.7231 11.4983 70.7231 16.2097ZM76.0903 12.3822C76.7697 12.3822 77.6021 12.5181 78.2372 12.7669V18.7018C78.2372 19.4037 77.2297 19.789 76.0246 19.789C74.1187 19.789 73.5266 19.0638 73.5266 16.1876C73.5266 12.9033 74.1628 12.3822 76.0903 12.3822Z" fill="#313647"></path><path fill-rule="evenodd" clip-rule="evenodd" d="M87.8278 22.164C88.9605 22.164 90.5953 21.9165 91.7067 21.5348L91.2704 19.3315C90.399 19.6016 88.9387 19.8034 88.1547 19.8034C86.2156 19.8034 85.3006 19.3088 85.2782 16.8593H92.4472C92.6436 11.3082 91.1185 10.0713 87.6097 10.0713C84.3846 10.0713 82.446 11.4872 82.446 16.0726C82.446 20.7699 84.6243 22.164 87.8278 22.164ZM89.9632 14.7244H85.3007C85.4744 12.8358 86.0633 12.2741 87.7626 12.2741C89.3098 12.2741 89.8764 12.701 89.9632 14.7244Z" fill="#313647"></path><path d="M97.8278 12.7617V17.7236C97.8278 19.1499 98.1949 19.7386 99.4901 19.7386C100.202 19.7386 100.828 19.6028 101.368 19.4223L101.843 21.6421C101.066 21.9366 99.8784 22.1634 98.8205 22.1634C96.3599 22.1634 95.1514 21.3925 95.1514 17.9723V12.7617H93.3167V10.3156H95.1514V8.36727L97.8278 7.2124V10.3156H101.475V12.7617H97.8278Z" fill="#313647"></path><path fill-rule="evenodd" clip-rule="evenodd" d="M106.691 5.67334H103.974V21.3335C105.18 21.8266 107.239 22.1634 108.86 22.1634C112.541 22.1634 114.205 20.752 114.205 16.0687C114.205 11.4537 112.672 10.1091 109.583 10.1091C108.334 10.1091 107.305 10.4901 106.691 10.8707V5.67334ZM108.86 19.8777C108.159 19.8777 107.327 19.7651 106.691 19.519V13.6268C106.691 12.9544 107.699 12.5508 108.904 12.5508C110.81 12.5508 111.423 13.2906 111.423 16.1137C111.423 19.3622 110.788 19.8777 108.86 19.8777Z" fill="#616371"></path><path fill-rule="evenodd" clip-rule="evenodd" d="M120.222 22.164C121.786 22.164 123.879 21.8261 125.289 21.2644V14.5217C125.289 11.1056 123.769 10.0713 120.442 10.0713C118.834 10.0713 117.137 10.3633 115.97 10.678L116.476 12.9709C117.402 12.6336 118.635 12.4086 119.869 12.4086C122.204 12.4086 122.667 12.9032 122.667 14.9034C121.719 14.7016 120.838 14.5887 119.891 14.5887C117.269 14.5887 115.484 15.1058 115.484 18.3428C115.484 21.3315 116.674 22.164 120.222 22.164ZM120.442 16.5892C121.257 16.5892 122.05 16.6564 122.667 16.791V19.6463C122.029 19.8707 121.213 20.028 120.42 20.028C118.768 20.028 118.349 19.7811 118.349 18.2296C118.349 16.7692 118.9 16.5892 120.442 16.5892Z" fill="#616371"></path><path d="M137.225 21.9436C134.875 18.1594 133.22 16.0983 132.654 15.7383C133.242 15.2653 134.765 13.2404 136.898 10.5918H133.699C132.106 12.4839 131.076 14.1241 129.979 15.018V5.67334H127.42V21.9436H129.979V16.3083C131.076 17.1914 132.209 19.295 134.047 21.9436H137.225Z" fill="#616371"></path><path fill-rule="evenodd" clip-rule="evenodd" d="M143.033 22.164C144.166 22.164 145.801 21.9165 146.911 21.5348L146.475 19.3315C145.604 19.6016 144.144 19.8034 143.36 19.8034C141.42 19.8034 140.505 19.3088 140.484 16.8593H147.653C147.848 11.3082 146.323 10.0713 142.815 10.0713C139.59 10.0713 137.651 11.4872 137.651 16.0726C137.651 20.7699 139.83 22.164 143.033 22.164ZM145.169 14.7244H140.505C140.679 12.8358 141.268 12.2741 142.967 12.2741C144.515 12.2741 145.081 12.701 145.169 14.7244Z" fill="#616371"></path><path d="M149.375 10.4103H152.052V11.2715C152.441 10.6371 153.283 10.0703 154.859 10.0703C155.226 10.0703 155.593 10.0931 155.982 10.1385V12.8122C155.593 12.7211 155.053 12.6535 154.579 12.6535C153.24 12.6535 152.052 13.1067 152.052 13.9451V21.9432H149.375V10.4103Z" fill="#616371"></path><path d="M165.091 12.8804C164.227 12.5876 162.994 12.3406 161.89 12.3406C160.571 12.3406 159.9 12.4755 159.9 13.6663C159.9 14.4538 160.376 14.7232 162.171 14.9024C164.832 15.1953 166 16.0489 166 18.3419C166 21.3087 164.097 22.1631 161.285 22.1631C160.116 22.1631 158.385 21.9381 157.348 21.5556L157.91 19.353C158.711 19.6458 160.074 19.8926 161.176 19.8926C162.647 19.8926 163.34 19.6901 163.34 18.4992C163.34 17.69 162.907 17.3077 160.982 17.1278C158.559 16.926 157.261 16.2289 157.261 13.8689C157.261 10.9022 159.186 10.0703 161.977 10.0703C163.123 10.0703 164.572 10.3172 165.676 10.6997L165.091 12.8804Z" fill="#616371"></path><path fill-rule="evenodd" clip-rule="evenodd" d="M27.1195 13.9873C27.1195 6.26234 21.0486 0 13.5598 0C6.07093 0 0 6.26234 0 13.9873C0 21.7124 6.07093 27.9747 13.5598 27.9747C21.0486 27.9747 27.1195 21.7124 27.1195 13.9873ZM13.5101 8.80087L13.5932 8.80018C16.3395 8.80018 18.5724 11.0853 18.6168 13.9204L18.6174 14.0065C18.6174 16.8519 16.412 19.1662 13.6763 19.2122L13.5932 19.2129C10.8188 19.2129 8.56885 16.8806 8.56885 14.0065C8.56885 11.1604 10.774 8.84686 13.5101 8.80087Z" fill="url(#paint0_linear_880_11311)"></path><path fill-rule="evenodd" clip-rule="evenodd" d="M15.1476 1.51107C15.0683 1.40558 14.9481 1.34912 14.8262 1.34912L14.7999 1.34998C14.7298 1.3546 14.6597 1.37777 14.5973 1.4211L14.5589 1.44714C13.9776 1.82671 12.6302 2.10356 12.1497 2.18003L12.1269 2.18427C11.9167 2.22969 11.7754 2.4382 11.8078 2.6608C11.8388 2.86989 12.0128 3.01906 12.2104 3.01906L12.2722 3.01411L12.2815 3.01264C12.5214 2.97459 14.2553 2.68234 15.0549 2.11935L15.0743 2.10485C15.2442 1.97006 15.2852 1.71951 15.1629 1.53282L15.1476 1.51107ZM10.2044 2.80871L10.2127 2.83107C10.2851 3.04325 10.1835 3.27519 9.98552 3.36098L9.96395 3.3696C9.54262 3.52365 8.3556 4.01621 7.82019 4.47546L7.78471 4.50672C7.71466 4.57031 7.62941 4.60474 7.54278 4.61047L7.51677 4.61133C7.40319 4.61133 7.29048 4.56245 7.20974 4.46635C7.06714 4.29741 7.07811 4.0436 7.23122 3.88761L7.24882 3.87069C7.97909 3.20957 9.58084 2.61447 9.68963 2.57514L9.69318 2.57386C9.89818 2.49872 10.122 2.60359 10.2044 2.80871ZM16.3684 6.74385C16.2991 6.69471 16.2188 6.67065 16.1391 6.67065L16.1134 6.67148C16.0019 6.67868 15.8936 6.73257 15.8191 6.83112L15.8048 6.85102C15.6821 7.03284 15.7164 7.28428 15.8864 7.42323L15.8892 7.42555C15.9728 7.49408 17.1951 8.48136 18.1364 8.74493C18.1721 8.75534 18.2077 8.75966 18.2434 8.75966L18.2667 8.75897C18.4367 8.74879 18.589 8.62783 18.6358 8.44799L18.6412 8.42473C18.6857 8.20745 18.5588 7.98861 18.3486 7.93002L18.3062 7.91752C17.6497 7.71494 16.7057 7.01837 16.3911 6.76117L16.3684 6.74385ZM9.58441 6.91697C9.63199 6.91697 9.68033 6.92579 9.72717 6.94423L9.75508 6.95645C9.95227 7.05071 10.0416 7.28782 9.963 7.49489L9.95392 7.51695C9.56 8.40151 8.45424 9.65498 8.34283 9.78128L8.33784 9.78694L8.33533 9.78979C8.26069 9.87194 8.16194 9.91742 8.06152 9.92393L8.03639 9.92474C7.93727 9.92474 7.83754 9.88729 7.7595 9.81163C7.60058 9.65918 7.5856 9.40584 7.72136 9.23459L7.73769 9.2152L7.74437 9.20757C7.83661 9.10272 8.84734 7.95371 9.19982 7.19454L9.21452 7.16224C9.27952 7.01611 9.41523 6.92673 9.56017 6.91772L9.58441 6.91697ZM24.0995 11.564C24.0636 11.5537 24.0277 11.5488 23.9918 11.5488L23.9682 11.5495C23.812 11.5591 23.6695 11.6637 23.6118 11.8264L23.6045 11.8489C23.5423 12.0592 23.6497 12.2872 23.8508 12.3671L23.8524 12.3678C23.9058 12.3899 24.722 12.7478 24.9693 14.2188C25.0038 14.4243 25.1759 14.5685 25.3701 14.5685L25.4409 14.5629L25.4635 14.5581C25.6722 14.5068 25.8093 14.2956 25.7717 14.0738L25.7614 14.0142C25.4105 12.0621 24.1791 11.5924 24.1265 11.5728L24.0995 11.564ZM20.6893 12.4175L20.6673 12.4101C20.4613 12.3471 20.2412 12.4613 20.1687 12.6741L20.1616 12.6968C20.101 12.9097 20.2114 13.1375 20.4159 13.2126L20.4576 13.2286C21.0874 13.4805 21.911 14.2542 22.1812 14.5369C22.2608 14.6204 22.3657 14.6622 22.4711 14.6622L22.497 14.6613C22.5918 14.6552 22.6846 14.615 22.757 14.5406L22.7742 14.5219C22.9173 14.3569 22.9129 14.1033 22.7612 13.9434L22.737 13.9183C22.5651 13.7419 21.5643 12.7392 20.6893 12.4175Z" fill="white" fill-opacity="0.79581"></path><path fill-rule="evenodd" clip-rule="evenodd" d="M19.5384 3.09437L19.519 3.07996C19.3412 2.95641 19.0988 2.99713 18.9675 3.17562L18.9536 3.19583C18.8341 3.38025 18.8727 3.63146 19.046 3.76722L19.0747 3.79027C19.7076 4.30789 20.4325 5.52337 20.4821 5.60656C20.4836 5.6091 20.4845 5.61059 20.4848 5.61096C20.5611 5.74159 20.6954 5.81434 20.8336 5.81434L20.8605 5.81341C20.9233 5.80907 20.9862 5.78944 21.0439 5.75289L21.0641 5.73942C21.2409 5.61358 21.2939 5.36556 21.1812 5.17348L21.1793 5.17029C21.124 5.07576 20.3106 3.70216 19.5384 3.09437ZM4.85174 4.53107L4.83226 4.51666C4.65442 4.39311 4.41243 4.43383 4.28105 4.61232L4.26716 4.63253C4.14796 4.81689 4.18638 5.06742 4.35922 5.20367L4.38794 5.22669C5.04035 5.75953 5.79046 7.03428 5.79783 7.04766C5.87465 7.1783 6.0093 7.25041 6.14688 7.25041L6.17387 7.24951C6.23693 7.24529 6.30035 7.22614 6.35749 7.1896L6.37762 7.17613C6.55424 7.05029 6.6072 6.80226 6.49508 6.61018L6.4932 6.60696C6.43755 6.5117 5.62391 5.13811 4.85174 4.53107ZM22.4721 5.27946C22.6783 5.27946 22.8488 5.43658 22.8751 5.64621L22.8774 5.66972C22.878 5.67933 22.9509 6.60949 23.3232 7.34544L23.3424 7.38269C23.4461 7.58053 23.3815 7.82594 23.1988 7.94319L23.1788 7.95525C23.1258 7.98485 23.0693 8.00158 23.0129 8.00575L22.9848 8.00679C22.8401 8.00679 22.7003 7.92618 22.626 7.78564C22.1599 6.89564 22.0708 5.81377 22.0651 5.73621L22.0649 5.73332C22.0486 5.50876 22.2052 5.31261 22.4177 5.28346L22.4407 5.28099L22.4565 5.27999L22.4721 5.27946ZM20.6926 8.06591L20.6702 8.06033C20.4607 8.01467 20.2502 8.14665 20.1933 8.36361L20.1831 8.40104C19.9556 9.20262 19.1094 10.1934 19.101 10.2032L19.0855 10.2221C18.9524 10.3959 18.9719 10.6496 19.1337 10.7996C19.2112 10.8709 19.3081 10.9064 19.4048 10.9064L19.4307 10.9055C19.5341 10.8987 19.6347 10.8511 19.7089 10.7649L19.7112 10.7622C19.7771 10.6854 20.7222 9.57123 20.9798 8.58413L20.9852 8.56087C21.0295 8.34364 20.9027 8.12548 20.6926 8.06591ZM6.63819 10.7385L6.64352 10.7618C6.74175 11.2553 7.07788 12.6351 7.47347 13.2168L7.50053 13.2552C7.63167 13.435 7.60309 13.6873 7.44038 13.8312L7.42175 13.8467C7.35619 13.8981 7.28124 13.9257 7.20499 13.9312L7.17635 13.9322C7.05261 13.9322 6.93156 13.8749 6.85094 13.7654C6.26763 12.967 5.89655 11.1874 5.84688 10.9418L5.84495 10.9322C5.80165 10.7118 5.93242 10.4959 6.13954 10.4387L6.16202 10.4332C6.37495 10.3882 6.58297 10.5237 6.63819 10.7385ZM1.83646 12.0449L1.85831 12.0526C2.21892 12.1911 3.28399 12.5306 3.95621 12.4823L3.99858 12.4786C4.21624 12.4569 4.40774 12.6149 4.43944 12.8351L4.44221 12.859C4.46351 13.0828 4.31074 13.2828 4.09892 13.3166L4.07601 13.3196C4.01472 13.3256 3.95171 13.3295 3.88738 13.3311L3.82264 13.3319C2.86328 13.3319 1.6546 12.8742 1.57711 12.8449L1.57517 12.8441C1.37099 12.7657 1.26378 12.537 1.32732 12.3247L1.33478 12.302C1.41061 12.0912 1.63195 11.9792 1.83646 12.0449ZM12.006 4.55708L12.0267 4.56955C12.849 5.10146 13.7805 6.39215 13.8442 6.48112L13.8463 6.48413C13.9751 6.66458 13.9442 6.91691 13.7796 7.0589L13.7608 7.07421C13.696 7.12386 13.622 7.15054 13.5472 7.15586L13.5191 7.15686C13.3945 7.15686 13.2709 7.09744 13.1911 6.98585L13.1895 6.9836C13.1467 6.92454 12.3085 5.76584 11.6258 5.30702L11.5952 5.28684C11.4112 5.1676 11.3504 4.92158 11.4532 4.72613L11.4653 4.70463C11.5801 4.51378 11.8178 4.45113 12.006 4.55708Z" fill="white"></path><path fill-rule="evenodd" clip-rule="evenodd" d="M15.6986 3.34871C15.6199 3.26843 15.5171 3.22754 15.4135 3.22754L15.3871 3.22842C15.2995 3.23426 15.2132 3.26939 15.1424 3.33494L15.1251 3.35194C14.974 3.50861 14.9652 3.76238 15.1088 3.92997L15.1112 3.93277C15.1826 4.01556 16.2213 5.20794 17.1504 5.56893C17.1977 5.58722 17.2455 5.59648 17.2934 5.59648L17.3168 5.59578C17.4727 5.58637 17.6163 5.48379 17.6749 5.32214L17.6824 5.29948C17.7462 5.08728 17.6403 4.8572 17.4364 4.77802L17.3954 4.7614C16.7763 4.49941 15.9786 3.67238 15.7178 3.3696L15.6986 3.34871ZM4.37326 7.66979C4.30694 7.51308 4.15807 7.4175 4.0002 7.4175L3.97206 7.41845C3.93449 7.42102 3.89669 7.4289 3.85905 7.44353L3.83764 7.45244C3.6412 7.54084 3.54283 7.77428 3.61831 7.98511L3.63239 8.0269C3.84686 8.69625 3.77065 10.0403 3.72159 10.5108L3.71975 10.5347C3.70872 10.7568 3.86748 10.9512 4.0829 10.9759L4.127 10.9787L4.14894 10.978C4.34522 10.9671 4.50983 10.8098 4.5318 10.6014L4.53274 10.5924C4.55706 10.3569 4.71742 8.63699 4.38257 7.69375L4.37326 7.66979ZM20.5673 14.9966C20.7723 14.9966 20.9449 15.1569 20.9694 15.3679L20.9715 15.3916C20.9974 15.8056 21.1273 16.9978 21.4205 17.6392L21.4407 17.6821C21.5392 17.8832 21.4668 18.1267 21.2812 18.2381L21.2609 18.2495C21.2107 18.2762 21.1572 18.2905 21.1043 18.294L21.0778 18.2949C20.9286 18.2949 20.7854 18.2099 20.7137 18.0631C20.2736 17.1607 20.1654 15.558 20.1586 15.449L20.1583 15.4454C20.1443 15.2209 20.3027 15.026 20.5157 14.9995L20.5388 14.9973L20.5532 14.9967L20.5673 14.9966ZM5.41754 15.1047C5.53338 15.1047 5.64761 15.1551 5.72738 15.2515L5.74393 15.2728C6.33472 16.089 6.6347 17.6233 6.65502 17.7294L6.65571 17.733C6.69747 17.9533 6.56436 18.1678 6.35653 18.2225L6.33398 18.2278L6.25569 18.2355C6.06456 18.2355 5.89438 18.0956 5.85591 17.8941C5.78239 17.5046 5.50937 16.3902 5.11998 15.8187L5.09262 15.7797C4.96184 15.6004 4.99078 15.3475 5.15439 15.2042L5.17312 15.1888C5.23846 15.1385 5.31377 15.1112 5.38925 15.1057L5.41754 15.1047ZM24.5543 8.79891C24.7399 8.79891 24.9059 8.93213 24.9498 9.12397L24.9545 9.14726C24.9925 9.369 24.8556 9.58092 24.6471 9.63149L24.6245 9.63629C24.1752 9.71921 22.9113 10.0177 22.3498 10.4174L22.3127 10.4449C22.2484 10.4937 22.1741 10.5205 22.0991 10.5259L22.0709 10.5269C21.9461 10.5269 21.8231 10.4675 21.7427 10.3559C21.6141 10.1752 21.6451 9.92223 21.8101 9.78032L21.829 9.76502C22.6088 9.16873 24.2458 8.84912 24.4732 8.80693L24.4823 8.80525C24.4984 8.80246 24.5144 8.80057 24.5304 8.79962L24.5543 8.79891Z" fill="white" fill-opacity="0.621148"></path><path d="M5.59351 21.1284C4.95932 21.1284 4.42986 20.6302 4.04821 19.634L3.1888 16.9801L2.67263 15.2669C2.3028 14.4838 1.87537 14.0923 1.36585 14.0923C0.856326 14.0923 0.434803 14.5906 0.0890917 15.587L0.0615234 15.7159C0.390866 18.5149 1.58885 21.0588 3.1888 23.0964C3.68109 23.5938 4.07098 24.0609 4.54604 24.4942C5.55204 23.7316 6.3813 22.2395 7.00922 20.0174C6.60776 20.7574 6.14008 21.1284 5.59351 21.1284Z" fill="url(#paint1_linear_880_11311)"></path><path d="M24.5297 15.4878C23.9205 15.4878 23.3815 16.1771 22.9485 17.5559L22.7574 18.1081L22.1152 20.2295C21.8748 21.1031 21.52 22.2224 21.0236 23.5941C20.5731 24.8392 19.9728 25.8675 19.2617 26.6837C20.5579 26.0574 21.7728 25.2262 22.7574 24.2298C24.6034 22.4997 25.9147 20.2747 26.5907 17.7636C25.8164 16.2467 25.1373 15.4878 24.5297 15.4878Z" fill="url(#paint2_linear_880_11311)"></path><path d="M21.9805 20.7446C21.5497 21.9356 21.0246 22.5312 20.4109 22.5312C19.7974 22.5312 19.3247 22.1928 18.9928 21.5161C18.6705 20.3026 18.0586 19.6958 17.1104 19.6958C16.3803 19.6958 15.8652 20.2677 15.496 20.9397C15.1268 21.4618 14.9301 22.0437 14.7193 22.4658C14.6964 22.5446 14.6478 22.6242 14.619 22.7047C13.6998 25.2783 12.3461 26.9282 10.5598 27.6584C11.5215 27.8816 12.545 28.0003 13.5721 28.0003C14.2174 28.0003 14.8806 27.9512 15.496 27.8613C16.8498 27.665 18.1188 27.2622 19.3147 26.6843C20.0259 25.8681 20.5966 24.8398 21.0472 23.5947C21.5436 22.2231 21.9044 21.1037 22.1449 20.2301L21.9805 20.7446Z" fill="url(#paint3_linear_880_11311)"></path><path d="M14.5597 22.7194C14.0531 23.5733 13.5487 23.9505 12.9909 23.9505C12.7987 23.9505 12.5961 23.8702 12.3836 23.7128C12.1847 23.5655 11.9771 23.351 11.7603 23.066L10.5185 20.0566C10.1317 18.9092 9.55672 18.3354 8.81779 18.3354C8.79109 18.3354 8.72709 18.3372 8.72709 18.3384C8.11173 18.3685 7.52627 18.7995 7.19717 19.6339C7.1365 19.7715 7.07988 19.8987 7.01552 20.0173C6.3876 22.2394 5.56154 23.7315 4.55554 24.4941C5.77371 25.6055 7.25022 26.494 8.72709 27.0986C9.09631 27.2392 9.46676 27.3647 9.84077 27.4738L9.84816 27.461L9.85296 27.4738C10.0859 27.5418 10.3217 27.603 10.5598 27.6584C12.346 26.9281 13.6997 25.2783 14.6191 22.7047C14.6477 22.6242 14.673 22.5446 14.696 22.4657C14.6496 22.5587 14.6043 22.6444 14.5597 22.7194Z" fill="url(#paint4_linear_880_11311)"></path><defs><linearGradient id="paint0_linear_880_11311" x1="0" y1="27.7968" x2="26.7745" y2="27.7968" gradientUnits="userSpaceOnUse"><stop stop-color="#3DDAAE"></stop><stop offset="1" stop-color="#12D476"></stop></linearGradient><linearGradient id="paint1_linear_880_11311" x1="1.05807" y1="21.362" x2="4.5501" y2="23.175" gradientUnits="userSpaceOnUse"><stop stop-color="#515563"></stop><stop offset="1" stop-color="#383D4D"></stop></linearGradient><linearGradient id="paint2_linear_880_11311" x1="23.7358" y1="25.9602" x2="29.0508" y2="21.2676" gradientUnits="userSpaceOnUse"><stop stop-color="#515563"></stop><stop offset="1" stop-color="#383D4D"></stop></linearGradient><linearGradient id="paint3_linear_880_11311" x1="15.4225" y1="26.1875" x2="19.2379" y2="23.8027" gradientUnits="userSpaceOnUse"><stop stop-color="#515563"></stop><stop offset="1" stop-color="#383D4D"></stop></linearGradient><linearGradient id="paint4_linear_880_11311" x1="7.97" y1="26.9781" x2="12.4227" y2="26.2102" gradientUnits="userSpaceOnUse"><stop stop-color="#515563"></stop><stop offset="1" stop-color="#383D4D"></stop></linearGradient></defs></svg>